<svg enable-background="new 0 0 144 144" viewBox="0 0 144 144" xmlns="http://www.w3.org/2000/svg"><g fill="#fff"><path d="m115.8 66c0-10.8-8.9-19.7-19.7-19.7-10.9 0-19.7 8.9-19.7 19.7s8.9 19.7 19.7 19.7 19.7-8.9 19.7-19.7zm-31 0c0-6.2 5.1-11.3 11.3-11.3s11.3 5.1 11.3 11.3-5.1 11.3-11.3 11.3-11.3-5.1-11.3-11.3z"/><path d="m48.2 46.3c-10.8 0-19.7 8.9-19.7 19.7.1 10.8 8.9 19.7 19.7 19.7s19.7-8.9 19.7-19.7-8.9-19.7-19.7-19.7zm0 31c-6.2 0-11.2-5.1-11.3-11.3 0-6.3 5.1-11.3 11.3-11.3 6.3 0 11.3 5.1 11.3 11.3 0 6.3-5.1 11.3-11.3 11.3z"/><path d="m111.7 99.1c12.3-5.9 20.9-18.5 20.9-33.1 0-11.6-5.5-21.8-13.9-28.6v-8h-22.7c-9.1 0-17.4 3.3-23.9 8.9-6.4-5.6-14.7-8.9-23.9-8.9h-22.7v8c-8.5 6.6-13.9 17-13.9 28.6 0 11.4 5.3 21.5 13.4 28.3l-14.4 15.5c12.6 20.5 35.4 34.2 61.4 34.2 5.5 0 10.8-.6 15.9-1.8v-8.8c11.2-9.5 19.4-21.2 23.8-34.3zm-39.6 3-6.3-14.2c-4.8 3.9-11 6.2-17.6 6.2-15.5 0-28.2-12.6-28.2-28.1s12.7-28.2 28.2-28.3c10 0 18.9 5.2 23.9 13.2 4.9-7.9 13.8-13.2 23.9-13.2 15.6 0 28.2 12.6 28.2 28.2s-12.7 28.2-28.2 28.2c-6.6 0-12.8-2.4-17.6-6.2z"/></g><path d="m48.2 54.7c-6.2 0-11.3 5-11.3 11.3.1 6.2 5.1 11.3 11.3 11.3s11.3-5 11.3-11.3c0-6.2-5-11.3-11.3-11.3z"/><circle cx="96.1" cy="66" r="11.3"/><path d="m124.2 65.9c0-15.6-12.6-28.2-28.2-28.2-10.1 0-19 5.3-23.9 13.2-5-8-13.9-13.2-23.9-13.2-15.5.1-28.2 12.8-28.2 28.3s12.7 28.1 28.2 28.1c6.6 0 12.8-2.3 17.6-6.2l6.3 14.2 6.3-14.2c4.8 3.8 11 6.2 17.6 6.2 15.5 0 28.2-12.6 28.2-28.2zm-76 19.8c-10.8 0-19.6-8.9-19.7-19.7 0-10.8 8.9-19.7 19.7-19.7s19.7 8.9 19.7 19.7-8.9 19.7-19.7 19.7zm28.2-19.7c0-10.8 8.8-19.7 19.7-19.7 10.8 0 19.7 8.9 19.7 19.7s-8.9 19.7-19.7 19.7-19.7-8.9-19.7-19.7z"/><path d="m144 72.7c-.1-39.7-32.3-71.8-72-71.8s-71.9 32.1-72 71.8c0 13.6 3.9 26.3 10.6 37.1l14.4-15.5c-8.1-6.8-13.4-16.9-13.4-28.3 0-11.6 5.4-22 13.9-28.6v-8h22.7c9.2 0 17.5 3.3 23.9 8.9 6.5-5.6 14.8-8.9 23.9-8.9h22.7v8c8.4 6.8 13.9 17 13.9 28.6 0 14.6-8.6 27.2-20.9 33.1-4.4 13.1-12.6 24.8-23.8 34.3v8.8c32-7.2 56-35.5 56.1-69.5z"/></svg>